<svg xmlns="http://www.w3.org/2000/svg" aria-label="Floor 2 conceptual plan" viewBox="-0.0 -100.0 961.6 961.6" width="961.6" height="961.6" preserveAspectRatio="xMidYMid meet" style="background-color: rgb(255, 255, 255); box-shadow: 0 4px 6px rgba(0,0,0,0.05); border-radius: 8px; background-image: linear-gradient(rgb(240, 240, 240) 1px, transparent 1px), linear-gradient(90deg, rgb(240, 240, 240) 1px, transparent 1px); background-size: 20px 20px; background-position: 40.8px 40.8px;"><g transform="translate(40.8, 40.8)"><rect x="0" y="440" width="360" height="240" fill="transparent" stroke="#d1d5db" stroke-width="1.5" stroke-dasharray="5,5"></rect><rect x="360" y="440" width="160" height="240" fill="transparent" stroke="#d1d5db" stroke-width="1.5" stroke-dasharray="5,5"></rect><rect x="520" y="440" width="120" height="240" fill="transparent" stroke="#d1d5db" stroke-width="1.5" stroke-dasharray="5,5"></rect><rect x="640" y="440" width="240" height="240" fill="transparent" stroke="#d1d5db" stroke-width="1.5" stroke-dasharray="5,5"></rect><rect x="0" y="240" width="360" height="200" fill="transparent" stroke="#d1d5db" stroke-width="1.5" stroke-dasharray="5,5"></rect><rect x="360" y="360" width="280" height="80" fill="transparent" stroke="#d1d5db" stroke-width="1.5" stroke-dasharray="5,5"></rect><rect x="360" y="200" width="80" height="160" fill="transparent" stroke="#d1d5db" stroke-width="1.5" stroke-dasharray="5,5"></rect><rect x="440" y="200" width="200" height="160" fill="transparent" stroke="#d1d5db" stroke-width="1.5" stroke-dasharray="5,5"></rect><rect x="640" y="200" width="240" height="240" fill="transparent" stroke="#d1d5db" stroke-width="1.5" stroke-dasharray="5,5"></rect><rect x="0" y="0" width="360" height="240" fill="transparent" stroke="#d1d5db" stroke-width="1.5" stroke-dasharray="5,5"></rect><rect x="360" y="0" width="80" height="200" fill="transparent" stroke="#d1d5db" stroke-width="1.5" stroke-dasharray="5,5"></rect><rect x="440" y="0" width="120" height="200" fill="transparent" stroke="#d1d5db" stroke-width="1.5" stroke-dasharray="5,5"></rect><g><rect x="0" y="440" width="240" height="240" fill="#E0E7FF" stroke="none"></rect><rect x="0" y="440" width="240" height="240" fill="none" stroke="#334155" stroke-width="3"></rect><rect x="0" y="677" width="80" height="6" fill="#bae6fd"></rect><rect x="237" y="530" width="6" height="60" fill="#ffffff"></rect><rect x="237" y="530" width="6" height="60" fill="#ffffff"></rect><text x="120" y="553" text-anchor="middle" alignment-baseline="middle" fill="#334155" font-family="'Inter', 'Roboto', sans-serif" font-size="13" font-weight="600">Bedroom 2</text><text x="120" y="570" text-anchor="middle" alignment-baseline="middle" fill="#94a3b8" font-family="'Inter', 'Roboto', sans-serif" font-size="11">12' × 12'</text><text x="120" y="584" text-anchor="middle" alignment-baseline="middle" fill="#cbd5e1" font-family="'Inter', 'Roboto', sans-serif" font-size="10">144 sqft</text></g><g><rect x="240" y="440" width="80" height="240" fill="#F1F5F9" stroke="none"></rect><rect x="240" y="440" width="80" height="240" fill="none" stroke="#334155" stroke-width="3"></rect><rect x="237" y="530" width="6" height="60" fill="#ffffff"></rect><rect x="317" y="530" width="6" height="60" fill="#ffffff"></rect><rect x="250" y="437" width="60" height="6" fill="#ffffff"></rect><rect x="237" y="530" width="6" height="60" fill="#ffffff"></rect><rect x="317" y="530" width="6" height="60" fill="#ffffff"></rect><rect x="250" y="437" width="60" height="6" fill="#ffffff"></rect><text x="280" y="553" text-anchor="middle" alignment-baseline="middle" fill="#334155" font-family="'Inter', 'Roboto', sans-serif" font-size="11.428571428571429" font-weight="600">Hall</text><text x="280" y="570" text-anchor="middle" alignment-baseline="middle" fill="#94a3b8" font-family="'Inter', 'Roboto', sans-serif" font-size="11">4' × 12'</text></g><g><rect x="320" y="440" width="240" height="240" fill="#F3E8FF" stroke="none"></rect><rect x="320" y="440" width="240" height="240" fill="none" stroke="#334155" stroke-width="3"></rect><rect x="320" y="677" width="80" height="6" fill="#bae6fd"></rect><rect x="317" y="530" width="6" height="60" fill="#ffffff"></rect><rect x="317" y="530" width="6" height="60" fill="#ffffff"></rect><text x="440" y="553" text-anchor="middle" alignment-baseline="middle" fill="#334155" font-family="'Inter', 'Roboto', sans-serif" font-size="13" font-weight="600">Bedroom 4</text><text x="440" y="570" text-anchor="middle" alignment-baseline="middle" fill="#94a3b8" font-family="'Inter', 'Roboto', sans-serif" font-size="11">12' × 12'</text><text x="440" y="584" text-anchor="middle" alignment-baseline="middle" fill="#cbd5e1" font-family="'Inter', 'Roboto', sans-serif" font-size="10">144 sqft</text></g><g><rect x="560" y="440" width="320" height="240" fill="#E0F2FE" stroke="none"></rect><rect x="560" y="440" width="320" height="240" fill="none" stroke="#334155" stroke-width="3"></rect><rect x="560" y="677" width="80" height="6" fill="#bae6fd"></rect><rect x="690" y="437" width="60" height="6" fill="#ffffff"></rect><rect x="690" y="437" width="60" height="6" fill="#ffffff"></rect><text x="720" y="553" text-anchor="middle" alignment-baseline="middle" fill="#334155" font-family="'Inter', 'Roboto', sans-serif" font-size="13" font-weight="600">Family Lounge</text><text x="720" y="570" text-anchor="middle" alignment-baseline="middle" fill="#94a3b8" font-family="'Inter', 'Roboto', sans-serif" font-size="11">16' × 12'</text><text x="720" y="584" text-anchor="middle" alignment-baseline="middle" fill="#cbd5e1" font-family="'Inter', 'Roboto', sans-serif" font-size="10">192 sqft</text></g><g><rect x="0" y="200" width="240" height="240" fill="#EDE9FE" stroke="none"></rect><rect x="0" y="200" width="240" height="240" fill="none" stroke="#334155" stroke-width="3"></rect><rect x="-3" y="360" width="6" height="80" fill="#bae6fd"></rect><rect x="237" y="290" width="6" height="60" fill="#ffffff"></rect><rect x="237" y="290" width="6" height="60" fill="#ffffff"></rect><text x="120" y="313" text-anchor="middle" alignment-baseline="middle" fill="#334155" font-family="'Inter', 'Roboto', sans-serif" font-size="13" font-weight="600">Bedroom 3</text><text x="120" y="330" text-anchor="middle" alignment-baseline="middle" fill="#94a3b8" font-family="'Inter', 'Roboto', sans-serif" font-size="11">12' × 12'</text><text x="120" y="344" text-anchor="middle" alignment-baseline="middle" fill="#cbd5e1" font-family="'Inter', 'Roboto', sans-serif" font-size="10">144 sqft</text></g><g><rect x="240" y="200" width="80" height="240" fill="#F1F5F9" stroke="none"></rect><rect x="240" y="200" width="80" height="240" fill="none" stroke="#334155" stroke-width="3"></rect><rect x="250" y="437" width="60" height="6" fill="#ffffff"></rect><rect x="237" y="290" width="6" height="60" fill="#ffffff"></rect><rect x="317" y="290" width="6" height="60" fill="#ffffff"></rect><rect x="250" y="197" width="60" height="6" fill="#ffffff"></rect><rect x="250" y="437" width="60" height="6" fill="#ffffff"></rect><rect x="237" y="290" width="6" height="60" fill="#ffffff"></rect><rect x="317" y="290" width="6" height="60" fill="#ffffff"></rect><rect x="250" y="197" width="60" height="6" fill="#ffffff"></rect><text x="280" y="313" text-anchor="middle" alignment-baseline="middle" fill="#334155" font-family="'Inter', 'Roboto', sans-serif" font-size="11.428571428571429" font-weight="600">Hall</text><text x="280" y="330" text-anchor="middle" alignment-baseline="middle" fill="#94a3b8" font-family="'Inter', 'Roboto', sans-serif" font-size="11">4' × 12'</text></g><g><rect x="320" y="200" width="120" height="240" fill="#F8FAFC" stroke="none"></rect><rect x="320" y="200" width="120" height="240" fill="none" stroke="#334155" stroke-width="3"></rect><rect x="317" y="290" width="6" height="60" fill="#ffffff"></rect><rect x="350" y="197" width="60" height="6" fill="#ffffff"></rect><rect x="317" y="290" width="6" height="60" fill="#ffffff"></rect><rect x="350" y="197" width="60" height="6" fill="#ffffff"></rect><text x="380" y="313" text-anchor="middle" alignment-baseline="middle" fill="#334155" font-family="'Inter', 'Roboto', sans-serif" font-size="13" font-weight="600">Bathroom</text><text x="380" y="330" text-anchor="middle" alignment-baseline="middle" fill="#94a3b8" font-family="'Inter', 'Roboto', sans-serif" font-size="11">6' × 12'</text><text x="380" y="344" text-anchor="middle" alignment-baseline="middle" fill="#cbd5e1" font-family="'Inter', 'Roboto', sans-serif" font-size="10">72 sqft</text></g><g><rect x="440" y="200" width="440" height="240" fill="#E0F2FE" stroke="none"></rect><rect x="440" y="200" width="440" height="240" fill="none" stroke="#334155" stroke-width="3"></rect><rect x="560" y="197" width="80" height="6" fill="#bae6fd"></rect><rect x="690" y="437" width="60" height="6" fill="#ffffff"></rect><rect x="470" y="197" width="60" height="6" fill="#ffffff"></rect><rect x="690" y="437" width="60" height="6" fill="#ffffff"></rect><rect x="470" y="197" width="60" height="6" fill="#ffffff"></rect><text x="660" y="313" text-anchor="middle" alignment-baseline="middle" fill="#334155" font-family="'Inter', 'Roboto', sans-serif" font-size="13" font-weight="600">Family Lounge</text><text x="660" y="330" text-anchor="middle" alignment-baseline="middle" fill="#94a3b8" font-family="'Inter', 'Roboto', sans-serif" font-size="11">22' × 12'</text><text x="660" y="344" text-anchor="middle" alignment-baseline="middle" fill="#cbd5e1" font-family="'Inter', 'Roboto', sans-serif" font-size="10">264 sqft</text></g><g><rect x="0" y="0" width="240" height="200" fill="#EDE9FE" stroke="none"></rect><rect x="0" y="0" width="240" height="200" fill="none" stroke="#334155" stroke-width="3"></rect><rect x="0" y="-3" width="80" height="6" fill="#bae6fd"></rect><rect x="237" y="130" width="6" height="60" fill="#ffffff"></rect><rect x="237" y="130" width="6" height="60" fill="#ffffff"></rect><text x="120" y="93" text-anchor="middle" alignment-baseline="middle" fill="#334155" font-family="'Inter', 'Roboto', sans-serif" font-size="13" font-weight="600">Home Office</text><text x="120" y="110" text-anchor="middle" alignment-baseline="middle" fill="#94a3b8" font-family="'Inter', 'Roboto', sans-serif" font-size="11">12' × 10'</text><text x="120" y="124" text-anchor="middle" alignment-baseline="middle" fill="#cbd5e1" font-family="'Inter', 'Roboto', sans-serif" font-size="10">120 sqft</text></g><g><rect x="240" y="120" width="200" height="80" fill="#F1F5F9" stroke="none"></rect><rect x="240" y="120" width="200" height="80" fill="none" stroke="#334155" stroke-width="3"></rect><rect x="250" y="197" width="60" height="6" fill="#ffffff"></rect><rect x="350" y="197" width="60" height="6" fill="#ffffff"></rect><rect x="237" y="130" width="6" height="60" fill="#ffffff"></rect><rect x="270" y="117" width="60" height="6" fill="#ffffff"></rect><rect x="437" y="130" width="6" height="60" fill="#ffffff"></rect><rect x="250" y="197" width="60" height="6" fill="#ffffff"></rect><rect x="350" y="197" width="60" height="6" fill="#ffffff"></rect><rect x="237" y="130" width="6" height="60" fill="#ffffff"></rect><rect x="270" y="117" width="60" height="6" fill="#ffffff"></rect><rect x="437" y="130" width="6" height="60" fill="#ffffff"></rect><text x="340" y="153" text-anchor="middle" alignment-baseline="middle" fill="#334155" font-family="'Inter', 'Roboto', sans-serif" font-size="13" font-weight="600">Hallway</text><text x="340" y="170" text-anchor="middle" alignment-baseline="middle" fill="#94a3b8" font-family="'Inter', 'Roboto', sans-serif" font-size="11">10' × 4'</text><text x="340" y="184" text-anchor="middle" alignment-baseline="middle" fill="#cbd5e1" font-family="'Inter', 'Roboto', sans-serif" font-size="10">40 sqft</text></g><g><rect x="240" y="0" width="120" height="120" fill="#FEF3C7" stroke="none"></rect><rect x="240" y="0" width="120" height="120" fill="none" stroke="#334155" stroke-width="3"></rect><rect x="240" y="-3" width="80" height="6" fill="#bae6fd"></rect><rect x="270" y="117" width="60" height="6" fill="#ffffff"></rect><rect x="270" y="117" width="60" height="6" fill="#ffffff"></rect><text x="300" y="53" text-anchor="middle" alignment-baseline="middle" fill="#334155" font-family="'Inter', 'Roboto', sans-serif" font-size="13" font-weight="600">Utility</text><text x="300" y="70" text-anchor="middle" alignment-baseline="middle" fill="#94a3b8" font-family="'Inter', 'Roboto', sans-serif" font-size="11">6' × 6'</text><text x="300" y="84" text-anchor="middle" alignment-baseline="middle" fill="#cbd5e1" font-family="'Inter', 'Roboto', sans-serif" font-size="10">36 sqft</text></g><g><rect x="440" y="0" width="120" height="200" fill="#F1F5F9" stroke="none"></rect><rect x="440" y="0" width="120" height="200" fill="none" stroke="#334155" stroke-width="3"></rect><rect x="470" y="197" width="60" height="6" fill="#ffffff"></rect><rect x="437" y="130" width="6" height="60" fill="#ffffff"></rect><rect x="470" y="197" width="60" height="6" fill="#ffffff"></rect><rect x="437" y="130" width="6" height="60" fill="#ffffff"></rect><g aria-label="Staircase treads" stroke="#94a3b8" stroke-width="1"><line x1="445" x2="555" y1="22.22222222222222" y2="22.22222222222222"></line><line x1="445" x2="555" y1="44.44444444444444" y2="44.44444444444444"></line><line x1="445" x2="555" y1="66.66666666666667" y2="66.66666666666667"></line><line x1="445" x2="555" y1="88.88888888888889" y2="88.88888888888889"></line><line x1="445" x2="555" y1="111.11111111111111" y2="111.11111111111111"></line><line x1="445" x2="555" y1="133.33333333333334" y2="133.33333333333334"></line><line x1="445" x2="555" y1="155.55555555555554" y2="155.55555555555554"></line><line x1="445" x2="555" y1="177.77777777777777" y2="177.77777777777777"></line></g><text x="500" y="93" text-anchor="middle" alignment-baseline="middle" fill="#334155" font-family="'Inter', 'Roboto', sans-serif" font-size="13" font-weight="600">Staircase</text><text x="500" y="110" text-anchor="middle" alignment-baseline="middle" fill="#94a3b8" font-family="'Inter', 'Roboto', sans-serif" font-size="11">6' × 10'</text><text x="500" y="124" text-anchor="middle" alignment-baseline="middle" fill="#cbd5e1" font-family="'Inter', 'Roboto', sans-serif" font-size="10">60 sqft</text></g></g></svg>